<svg width="39" height="33" viewBox="0 0 39 33" fill="none" xmlns="http://www.w3.org/2000/svg">
<g clip-path="url(#clip0_871_36)">
<path d="M34.7589 8.0108C34.7824 8.3512 34.7824 8.69159 34.7824 9.03512C34.7824 19.5026 26.8138 31.5747 12.2428 31.5747V31.5685C7.93853 31.5747 3.72363 30.3418 0.100098 28.0171C0.72598 28.0924 1.355 28.13 1.98559 28.1316C5.55265 28.1347 9.01774 26.9379 11.824 24.7339C8.43421 24.6696 5.46167 22.4594 4.42323 19.2328C5.61068 19.4618 6.83421 19.4147 7.9997 19.0963C4.30402 18.3496 1.6452 15.1026 1.6452 11.3316C1.6452 11.2971 1.6452 11.2641 1.6452 11.2312C2.74637 11.8445 3.97931 12.1849 5.24049 12.2226C1.75971 9.89629 0.686764 5.26571 2.78872 1.64531C6.81068 6.59433 12.7448 9.60296 19.115 9.92139C18.4766 7.17002 19.3487 4.28688 21.4068 2.35276C24.5973 -0.646452 29.6154 -0.492726 32.6146 2.69629C34.3887 2.34649 36.0891 1.69551 37.6452 0.773156C37.0538 2.60688 35.8162 4.16453 34.1628 5.15433C35.733 4.96923 37.2672 4.54884 38.7119 3.90727C37.6483 5.501 36.3087 6.88924 34.7589 8.0108Z" fill="#1D9BF0"/>
</g>
<defs>
<clipPath id="clip0_871_36">
<rect width="38.902" height="32" fill="white" transform="translate(0.100098 0.200195)"/>
</clipPath>
</defs>
</svg>
